<svg xmlns="http://www.w3.org/2000/svg" viewBox="0 0 480 480" fill="none" shape-rendering="auto"><metadata xmlns:rdf="http://www.w3.org/1999/02/22-rdf-syntax-ns#" xmlns:xsi="http://www.w3.org/2001/XMLSchema-instance" xmlns:dc="http://purl.org/dc/elements/1.1/" xmlns:dcterms="http://purl.org/dc/terms/"><rdf:RDF><rdf:Description><dc:title>Custom Avatar</dc:title><dc:creator>Ashley Seo</dc:creator><dc:source xsi:type="dcterms:URI">https://www.figma.com/community/file/881358461963645496</dc:source><dcterms:license xsi:type="dcterms:URI">https://creativecommons.org/licenses/by/4.0/</dcterms:license><dc:rights>Remix of „Custom Avatar” (https://www.figma.com/community/file/881358461963645496) by „Ashley Seo”, licensed under „CC BY 4.0” (https://creativecommons.org/licenses/by/4.0/)</dc:rights></rdf:Description></rdf:RDF></metadata><mask id="viewboxMask"><rect width="480" height="480" rx="0" ry="0" x="0" y="0" fill="#fff" /></mask><g mask="url(#viewboxMask)"><g transform="matrix(.85775 0 0 .85427 52 47)"><path d="M264 38.6s131.4 20.6 121.4 208.1c0 .7 15.2 10.9 16.4 12a77.1 77.1 0 0 1 23.4 36.3c13.9 51.3-35.7 104.2-75.8 118.2a155 155 0 0 1-46.7 8.3c-103.1 3-239.7-62.7-246.7-191a202.7 202.7 0 0 1 15.1-83.9c0 .1 57.4-142.5 192.9-108Z" fill="#643d19"/><path d="M388.7 248.7a57 57 0 0 0-3.2 10.5 40 40 0 0 0 8.5 30.4 42.3 42.3 0 0 0 33 15.7c-3.2-31.7-29-50.7-38.3-56.6ZM203.5 332c24.4-5.2 39.6-31 33.9-57.5-5.7-26.5-30.2-43.7-54.6-38.5-24.4 5.3-39.5 31-33.8 57.6 5.7 26.5 30.1 43.7 54.5 38.5Z" fill="#DC2400" style="mix-blend-mode:multiply" opacity=".1"/><path opacity=".1" d="M323 257.9s20.9-19.9 37-1.2Z" fill="#000"/><path d="M128.7 356.9C59.3 391.7-3.7 304.4 16.5 255.3c12.9-31.4 50.4-33.8 72.1-5.2a185 185 0 0 1 29.1 59.1" fill="#643d19"/><path opacity=".1" d="M71.5 279c9 9 16.1 22.5 25 30-1.7-12.5-4.3-26-10.4-37.3-6.2-11.6-17.5-21-29-20.3-14.2 1-25.9 17.6-27.4 32.6 1-9 19-15 25.9-14.2 10.8 20.4 15 60.6 15 60.6 9-22.7 5.4-40.7 1-51.5Z" fill="#000"/></g><g transform="matrix(.85472 0 0 .855 19 -17)"><path d="M393.3 367c3 1.7 24.1-24.8 38.2-16.7 4.7 2.7 8.3 7.3 11 12.3 6 11 8 24.4 5.7 36.8a67 67 0 0 1-29 41.2c-37.4 25.5-67 20.7-106.8 6-31.4-11.7-74-35.6-65.2-78.7 15.6-76 146.1-1 146.1-1Z" fill="#873C41"/><path d="M318.9 366.5a44.8 44.8 0 0 1-33.6-4.4 31 31 0 0 1-14.3-24.6c26.3-10.3 67.3 3.6 94.5 15.6l-13 38.9c-12.8-2.1-26-9.4-29.3-22.1-.5-2-2.2-3.9-4.3-3.4ZM420.5 349.6c3.8 14.7-5.7 34.9-19.5 42.4-14 8.7-31.3 7-37.5 1.8l11.2-36.5c11.3 5.4 18.6 9.6 18.6 9.6 2.3 1.4 15-13.6 27.2-17.3Z" fill="#fff"/><path d="M400.3 443.8c-22-20.1-48.9-31.4-76.2-39.3-23.4-6.9-49.7-11.3-73.4-4.5 11 23.5 39.2 38.2 61.7 46.6 34.8 12.9 61.8 18.2 93 2.2-1.7-1.7-3.3-3.4-5.1-5Z" fill="#EE7E8B"/></g><g transform="matrix(.85472 0 0 .855 19 -17)"><path d="M330.2 300.5c0 11.9-6.2 21.5-19.1 19.5-9.3-2.5-15.5-9-15.5-21.5 0-13 7.7-21.5 15.5-21.5 10.6 0 19.1 11.6 19 23.5ZM396.4 293c5.6.3 13.4-.3 18.7-3.9 1.8 3.3 3 7.4 3 11.2-.1 8-3.7 16.5-13 15.5-7.7-.8-9.6-11-9.6-16 0-2.4.3-4.7.9-6.8Z" fill="#2A1200"/><path d="M332 238.1a43.9 43.9 0 0 0-37.7 14.6c-3 3.4-3.8 9.4-.3 13 3.2 3.4 8.8 4.3 12 .6 1-1.1 2-2.2 3.1-3.1l1.6-1.3.5-.4a37.7 37.7 0 0 1 5.8-3.2l1.8-.6a34.5 34.5 0 0 1 5.8-1.3h.5l2-.1 4.3.3c4.4.6 8.8-4 8.8-8.7 0-5.3-3.4-9.2-8.2-9.8ZM419.5 276c-7.4 4.1-16 5-23.6 2.8-2-.6-4-2.4-4.9-4.4-.8-2-1-4.8-.2-7a10 10 0 0 1 4.6-5.3 9 9 0 0 1 6.7-.7l1 .3h3.6c1.4-.1 2.8-.5 4.2-1l1.5-.6c2-1.1 4.6-1.4 6.6-.7 2 .6 4 2.3 4.9 4.4.8 2 1 4.6.2 6.9-1 2.3-2.5 4.2-4.6 5.4Z" fill="#71472D"/></g><g transform="matrix(.85472 0 0 .85667 18 -15)"><path d="M440 102.8c-74-50.6-244.4-113.6-334 40l28.2 32c-17 22.4-25.2 41.9-25.7 43.2-8.8 22-12 46.3-12.6 70.6-.1 4.6 0 9.2.2 13.8 38.1 6.5 56.1 47.3 60.4 67 0 0 11.3.6 14-1.6 14-7.3 38.9-37.4 26.5-99-6-28-2-50.3 47-85 20.6-14.5 46.3-19.2 70.3-18.7a1221.6 1221.6 0 0 0 10 .5c29.2 2.3 54.4 11.5 62.7 18.2 12.8 10.4 19 14.4 20.4 15-5.6-12.6-12-23.5-19-32.8 7.8-19 21.9-44.5 40.7-57.4 3.5-2.4 7.1-4.4 10.9-5.8Z" fill="#3a1a00"/><path d="M106 142.8c89.6-153.6 260-90.6 334-40-20-13.7-115.5-40.5-159-18.5l.4.7c-83-18-151.1 30.5-175.4 57.8Z" fill="#fff" fill-opacity=".2"/><path d="M440 102.8c-30.4 11.2-51 58-57 78-28.5-14-47-15-77-16 4-32.8-17.7-67.8-25-80.5 43.5-22 139 4.8 159 18.5Z" fill="#000" fill-opacity=".1"/><path d="M306.2 163.2c-.8-12-40.7-41.1-81.2-36.4-54.1 6.4-86.5 45-89 50l-1.8-2c-17 22.4-25.2 41.9-25.7 43.2-8.8 22-12 46.3-12.6 70.6-.1 4.6 0 9.2.2 13.8 38.1 6.5 56.1 47.3 60.4 67 0 0 11.3.6 14-1.6 14-7.3 38.9-37.4 26.5-99-6-28-2-50.3 47-85 20.6-14.5 46.3-19.2 70.3-18.7l-8.3-.3.2-1.6ZM324.3 165.6c29.2 2.3 54.4 11.5 62.7 18.2 12.8 10.4 19 14.4 20.4 15-5.6-12.6-12-23.5-19-32.8-2.4 5.6-4.2 10.7-5.4 14.7v.1a138.1 138.1 0 0 0-58.7-15.2Z" fill="#fff" fill-opacity=".7"/></g><g transform="matrix(.85472 0 0 .85667 14 -12)"><path d="M99 260c6.5 0 97-2.3 127-7l27.5 58c-40.8 9.6-94.3 9.7-116 8.5A59.3 59.3 0 0 0 88 299c.4-8.8 4.5-39 11-39Z" fill="#5E0E56"/><path d="M438.3 234c-65.2-64.1-159.5-37.2-199.4-6.7a50.2 50.2 0 0 0-19.9 29.2c-4 16.1-2.6 45.3 29.8 65.1 32.4 19.8 72.7 6.3 82 0 9.5-6.2 27-20.8 51-19.8 19.3.9 34.5 10.1 39.8 14.6 9.7 3.9 27.4-1.8 27.4-36 0-34.1-6.5-43.5-10.7-46.3Z" fill="#9A3E91"/><path fill-rule="evenodd" clip-rule="evenodd" d="M328.8 270.3a32.6 32.6 0 0 0 3.8-19.2l-5 .6c.6 4.5-.1 12-4.4 18.2-3.5 5-9.4 9.4-19.3 11a38.7 38.7 0 0 1-24.6-3.5 31.7 31.7 0 0 1-13.3-12.7l-4.5 2.2c2 4 6.3 9.3 12.8 13.4l-8.8 11 4 3.2 9.3-11.8c6.2 3 14 4.5 23.4 3.5l2.3 15 5-.7-2.4-15.1c8.8-2 14.8-6 18.9-11l9.4 4.7 2.2-4.4-8.8-4.4ZM429.3 276.5c4.7-3.5 7.5-8.4 8.8-12l-4.7-1.6a22 22 0 0 1-8.8 10.9 17.9 17.9 0 0 1-15.3 1.3c-6.8-2.1-11.1-6-13.8-10-3-4.9-4-10-4-13h-5c0 3.3.8 8.3 3.4 13.3l-8.8 4.5 2.3 4.5 9.3-4.8c2.9 3.8 7 7.2 12.8 9.4l-3.5 10.8 4.8 1.5 3.4-10.8c5.8 1.3 10.8.6 14.9-1.3l4 5.7 4-2.9-3.8-5.5Z" fill="#F9ACF1"/></g></g></svg>